<?xml version="1.0" encoding="utf-8"?>
<!-- Generator: Adobe Illustrator 17.0.0, SVG Export Plug-In . SVG Version: 6.00 Build 0)  -->
<!DOCTYPE svg PUBLIC "-//W3C//DTD SVG 1.1//EN" "http://www.w3.org/Graphics/SVG/1.1/DTD/svg11.dtd">
<svg version="1.1" id="레이어_1" xmlns="http://www.w3.org/2000/svg" xmlns:xlink="http://www.w3.org/1999/xlink" x="0px"
	 y="0px" width="235.25px" height="283.46px" viewBox="0 0 235.25 283.46" enable-background="new 0 0 235.25 283.46"
	 xml:space="preserve">
<g>
	<path fill="#FFFFFF" d="M641.707,280.625H492.153c-23.612,0-42.746-19.134-42.746-42.746V88.298
		c0-23.612,19.134-42.746,42.746-42.746h21.373V24.207h23.329c4.394-12.444,16.129-21.373,30.075-21.373s25.681,8.929,30.075,21.373
		h23.329V45.58h21.373c23.612,0,42.746,19.134,42.746,42.746v149.582C684.453,261.492,665.319,280.625,641.707,280.625z
		 M609.676,45.58H598.99h-1.956h-19.417V24.207h-21.373V45.58h-19.389h-12.642v21.373h42.717h32.059h10.686L609.676,45.58
		L609.676,45.58z M663.08,88.298c0-11.792-9.553-21.373-21.373-21.373h-21.373v21.373H513.498V66.925h-21.373
		c-11.792,0-21.373,9.581-21.373,21.373V237.88c0,11.792,9.581,21.373,21.373,21.373h149.582c11.82,0,21.373-9.553,21.373-21.373
		V88.298L663.08,88.298z M524.184,216.507h117.523v21.373H524.184V216.507z M524.184,163.103h117.523v21.373H524.184V163.103z
		 M524.184,109.671h117.523v21.373H524.184V109.671z M492.153,216.507h21.373v21.373h-21.373V216.507z M492.153,163.103h21.373
		v21.373h-21.373V163.103z M492.153,109.671h21.373v21.373h-21.373C492.153,131.044,492.153,109.671,492.153,109.671z"/>
</g>
</svg>
