<?xml version="1.0" encoding="utf-8"?>
<!-- Generator: Adobe Illustrator 17.0.0, SVG Export Plug-In . SVG Version: 6.00 Build 0)  -->
<!DOCTYPE svg PUBLIC "-//W3C//DTD SVG 1.1//EN" "http://www.w3.org/Graphics/SVG/1.1/DTD/svg11.dtd">
<svg version="1.1" id="Layer_1" xmlns="http://www.w3.org/2000/svg" xmlns:xlink="http://www.w3.org/1999/xlink" x="0px" y="0px"
	 width="283.46px" height="283.46px" viewBox="425.2 0 283.46 283.46" enable-background="new 425.2 0 283.46 283.46"
	 xml:space="preserve">
<g>
	<g>
		<g>
			<g>
				<g>
					<g>
						<circle fill="#79302A" cx="566.93" cy="141.73" r="141.73"/>
					</g>
				</g>
			</g>
		</g>
	</g>
	<path fill="#601E1B" d="M705.106,110.068l-54.41-54.41L496.844,210.553l72.868,72.872c76.99-1.484,138.948-64.349,138.948-141.695
		C708.66,130.845,707.429,120.249,705.106,110.068z"/>
	<g>
		<path fill="#F86E51" d="M569.243,185.226c4.979-6.383,19.308-10.761,24.613-16.067c11.257-11.257,4.418-28.754-10.592-43.764
			c-15.01-15.01-32.507-21.85-43.764-10.592c-5.306,5.306-9.683,19.634-16.067,24.613c-13.103,10.222-28.432,5.61-38.542,15.72
			c-15.636,15.636-8.265,35.202,12.583,56.05s40.415,28.218,56.05,12.583C563.634,213.658,559.022,198.33,569.243,185.226z"/>
	</g>
	<g>
		<path fill="#DD553E" d="M583.265,125.395c-5.366-5.366-11.049-9.68-16.653-12.504v76.3c0.752-1.339,1.616-2.664,2.631-3.966
			c4.979-6.383,19.308-10.761,24.613-16.067C605.115,157.903,598.275,140.405,583.265,125.395z"/>
	</g>
	<g>
		
			<rect x="585.267" y="59.9" transform="matrix(0.7071 0.7071 -0.7071 0.7071 254.7644 -387.142)" fill="#D5C295" width="18.873" height="108.114"/>
	</g>
	<g>
		<polygon fill="#C1AA7C" points="626.255,69.059 566.612,128.702 566.612,155.393 639.601,82.405 		"/>
	</g>
	<g>
		<circle fill="#32373B" cx="550.188" cy="158.472" r="14.829"/>
	</g>
	<g>
		<path fill="#32373B" d="M509.509,182.614l16.537,16.537c1.435,1.435,3.762,1.435,5.197,0l1.857-1.857
			c1.435-1.435,1.435-3.762,0-5.197l-16.537-16.537c-1.435-1.435-3.762-1.435-5.197,0l-1.857,1.857
			C508.074,178.852,508.074,181.179,509.509,182.614z"/>
	</g>
	<g>
		<path fill="#8E725E" d="M615.446,80.893l12.321,12.321c2.166,2.166,5.676,2.166,7.84,0l22.402-22.402
			c2.166-2.166,2.166-5.676,0-7.84l-12.321-12.321c-2.166-2.166-5.676-2.166-7.841,0l-22.402,22.402
			C613.281,75.218,613.281,78.728,615.446,80.893z"/>
	</g>
</g>
</svg>
