<?xml version="1.0" encoding="utf-8"?>
<!-- Generator: Adobe Illustrator 17.0.0, SVG Export Plug-In . SVG Version: 6.00 Build 0)  -->
<!DOCTYPE svg PUBLIC "-//W3C//DTD SVG 1.1//EN" "http://www.w3.org/Graphics/SVG/1.1/DTD/svg11.dtd">
<svg version="1.1" id="Layer_1" xmlns="http://www.w3.org/2000/svg" xmlns:xlink="http://www.w3.org/1999/xlink" x="0px" y="0px"
	 width="283.46px" height="283.46px" viewBox="425.2 0 283.46 283.46" enable-background="new 425.2 0 283.46 283.46"
	 xml:space="preserve">
<g>
	<g>
		<g>
			<g>
				<g>
					<circle fill="#345065" cx="566.93" cy="141.73" r="141.73"/>
				</g>
			</g>
		</g>
	</g>
	<path fill="#1F3949" d="M708.286,131.445l-33.224-33.287l-215.646,87.849l97.1,97.071c3.44,0.25,6.912,0.382,10.414,0.382
		c78.275,0,141.73-63.455,141.73-141.73C708.66,138.27,708.53,134.842,708.286,131.445z"/>
	<g>
		<path fill="#97A5AF" d="M466.399,188.973h201.063c5.359,0,9.703-4.344,9.703-9.703v-75.081c-0.001-5.358-4.345-9.703-9.704-9.703
			H466.399c-5.359,0-9.703,4.344-9.703,9.703v75.081C456.696,184.629,461.04,188.973,466.399,188.973z"/>
	</g>
	<g>
		<path fill="#7C8C96" d="M667.461,94.487H567.089v94.487h100.372c5.359,0,9.703-4.344,9.703-9.703v-75.081
			C677.164,98.831,672.82,94.487,667.461,94.487z"/>
	</g>
	<g>
		<g>
			<g>
				<path fill="#FFFFFF" d="M486.404,182.24h-17.772c-1.677,0-3.036-1.359-3.036-3.036v-54.125h23.843v54.125
					C489.439,180.881,488.08,182.24,486.404,182.24z"/>
			</g>
		</g>
		<g>
			<g>
				<path fill="#FFFFFF" d="M522.169,182.24h-17.772c-1.677,0-3.036-1.359-3.036-3.036v-54.125h23.843v54.125
					C525.204,180.881,523.845,182.24,522.169,182.24z"/>
			</g>
		</g>
		<g>
			<g>
				<path fill="#FFFFFF" d="M557.934,182.24h-17.772c-1.677,0-3.036-1.359-3.036-3.036v-54.125h23.843v54.125
					C560.97,180.881,559.61,182.24,557.934,182.24z"/>
			</g>
		</g>
		<g>
			<g>
				<path fill="#FFFFFF" d="M593.698,182.24h-17.772c-1.677,0-3.036-1.359-3.036-3.036v-54.125h23.843v54.125
					C596.734,180.881,595.374,182.24,593.698,182.24z"/>
			</g>
		</g>
		<g>
			<g>
				<path fill="#FFFFFF" d="M629.463,182.24h-17.772c-1.677,0-3.036-1.359-3.036-3.036v-54.125h23.843v54.125
					C632.499,180.881,631.14,182.24,629.463,182.24z"/>
			</g>
		</g>
		<g>
			<g>
				<path fill="#FFFFFF" d="M665.228,182.24h-17.772c-1.677,0-3.036-1.359-3.036-3.036v-54.125h23.843v54.125
					C668.264,180.881,666.905,182.24,665.228,182.24z"/>
			</g>
		</g>
		<g>
			<g>
				<path fill="#2B2B2B" d="M575.816,169.538h-17.771c-1.677,0-3.036-1.359-3.036-3.036v-41.422h23.843v41.422
					C578.852,168.179,577.492,169.538,575.816,169.538z"/>
			</g>
		</g>
		<g>
			<g>
				<path fill="#181919" d="M565.181,125.08v44.457h10.635c1.677,0,3.036-1.359,3.036-3.036v-41.422L565.181,125.08L565.181,125.08z
					"/>
			</g>
		</g>
		<g>
			<g>
				<path fill="#181919" d="M611.58,169.538h-17.772c-1.677,0-3.036-1.359-3.036-3.036v-41.422h23.843v41.422
					C614.616,168.179,613.257,169.538,611.58,169.538z"/>
			</g>
		</g>
		<g>
			<g>
				<path fill="#181919" d="M647.345,169.538h-17.772c-1.677,0-3.036-1.359-3.036-3.036v-41.422h23.843v41.422
					C650.381,168.179,649.022,169.538,647.345,169.538z"/>
			</g>
		</g>
		<g>
			<g>
				<path fill="#2B2B2B" d="M504.286,169.538h-17.771c-1.677,0-3.036-1.359-3.036-3.036v-41.422h23.843v41.422
					C507.322,168.179,505.963,169.538,504.286,169.538z"/>
			</g>
		</g>
	</g>
	<g>
		<path fill="#B8C9F1" d="M677.164,104.19c0-5.359-4.344-9.703-9.703-9.703H466.399c-5.359,0-9.703,4.344-9.703,9.703v27.837
			h220.469V104.19z"/>
	</g>
	<g>
		<path fill="#95A8CE" d="M677.164,104.19c0-5.359-4.344-9.703-9.703-9.703h-102.28v37.54h111.984V104.19z"/>
	</g>
</g>
</svg>
