<?xml version="1.0" standalone="no"?>
<!DOCTYPE svg PUBLIC "-//W3C//DTD SVG 20010904//EN"
 "http://www.w3.org/TR/2001/REC-SVG-20010904/DTD/svg10.dtd">
<svg version="1.0" xmlns="http://www.w3.org/2000/svg"
 width="1024.000000pt" height="576.000000pt" viewBox="0 0 1024.000000 576.000000"
 preserveAspectRatio="xMidYMid meet">
<metadata>
Created by potrace 1.15, written by Peter Selinger 2001-2017
</metadata>
<g transform="translate(0.000000,576.000000) scale(0.100000,-0.100000)"
fill="#000000" stroke="none">
<path d="M0 2880 l0 -2880 5120 0 5120 0 0 2880 0 2880 -5120 0 -5120 0 0
-2880z m1550 2553 c14 -3 37 -18 51 -34 14 -16 29 -25 33 -22 11 11 120 -103
146 -154 14 -27 40 -68 58 -92 17 -24 32 -52 32 -62 0 -20 -15 -25 -25 -9 -4
6 -10 8 -15 5 -5 -3 -17 6 -26 20 -18 27 -80 63 -147 85 -30 9 -41 9 -53 -1
-18 -15 -128 -23 -119 -9 13 21 -33 9 -59 -15 -37 -34 -33 -49 19 -64 25 -7
49 -19 53 -26 12 -22 84 -75 93 -69 5 2 22 -2 38 -11 27 -14 33 -13 76 5 53
23 85 26 85 7 0 -7 17 -30 38 -52 46 -48 82 -106 82 -130 0 -16 -2 -17 -17 -3
-10 8 -40 22 -67 31 -44 14 -53 14 -77 1 -15 -7 -34 -11 -42 -8 -10 3 -18 -2
-22 -16 -8 -27 15 -45 100 -79 76 -30 95 -47 95 -83 0 -15 2 -28 4 -28 2 0 48
11 102 25 55 14 111 23 125 20 14 -3 44 1 65 9 85 31 135 40 144 25 6 -8 4
-20 -6 -30 -7 -8 -14 -22 -14 -30 0 -10 -2 -11 -8 -2 -6 9 -24 9 -82 -1 -79
-14 -94 -19 -149 -43 -28 -13 -35 -13 -42 -2 -5 8 -9 9 -9 3 0 -6 -26 -9 -70
-7 -74 4 -115 -9 -106 -33 3 -8 -1 -14 -9 -14 -8 0 -15 -6 -15 -14 0 -12 -5
-12 -30 -3 -39 15 -51 1 -20 -23 33 -25 19 -36 -17 -14 -15 10 -30 21 -33 24
-10 11 -78 11 -85 1 -11 -18 -42 -12 -48 9 -4 17 0 20 28 20 21 0 35 6 39 16
4 10 13 13 25 9 12 -3 31 1 45 10 23 15 27 15 60 0 26 -13 38 -14 48 -6 7 7
22 18 33 26 16 11 18 16 8 26 -7 7 -13 23 -13 36 0 27 -38 40 -68 24 -12 -6
-44 -11 -72 -11 -28 0 -61 -5 -72 -11 -15 -8 -22 -8 -28 0 -8 14 -1 71 10 71
15 0 18 39 4 51 -8 7 -12 14 -10 17 3 2 1 12 -4 22 -6 12 -22 17 -50 17 -34 0
-41 -4 -46 -24 -5 -17 -11 -22 -23 -18 -9 4 -22 9 -28 12 -15 6 -18 -23 -3
-32 6 -4 7 -11 4 -17 -5 -7 -12 -4 -22 8 -14 18 -14 18 -10 -1 3 -11 -2 -27
-10 -34 -13 -13 -13 -16 4 -28 15 -11 15 -13 2 -13 -9 0 -19 -6 -21 -12 -3 -7
-6 -2 -6 11 -1 14 -6 21 -13 19 -17 -7 -53 28 -39 37 18 11 12 23 -8 18 -10
-3 -22 0 -25 6 -4 6 -15 11 -26 11 -10 0 -20 7 -24 15 -3 8 -12 15 -21 15 -8
0 -15 5 -15 10 0 6 -6 10 -13 10 -16 0 -40 38 -32 51 4 5 10 7 15 4 5 -3 11 8
15 24 3 16 13 32 21 35 9 3 12 10 9 16 -3 5 0 10 7 10 10 0 9 3 -2 10 -12 7
-11 12 8 28 29 25 29 52 0 52 -45 0 -53 14 -39 62 8 24 20 57 27 73 12 27 11
30 -6 33 -10 2 -23 9 -29 16 -9 10 -4 16 20 26 17 7 37 19 45 27 16 17 19 73
3 73 -5 0 -7 5 -4 10 5 8 11 8 19 1 14 -11 66 -5 81 10 12 12 52 12 60 -1 3
-5 14 -2 25 8 25 20 25 32 3 33 -16 0 -15 2 2 9 11 5 29 7 40 4 11 -3 31 -8
45 -11z m1509 -297 c6 -7 27 -16 46 -19 21 -3 55 -23 84 -48 58 -50 86 -111
77 -167 -5 -36 -3 -39 44 -71 28 -19 50 -38 50 -43 0 -14 -32 -9 -52 9 -17 15
-18 15 -18 -1 0 -13 -6 -15 -25 -10 -27 7 -35 -10 -10 -20 12 -4 15 -30 15
-141 0 -129 1 -135 21 -135 38 0 50 -56 61 -289 9 -208 19 -271 50 -321 10
-16 10 -25 -4 -48 -9 -15 -18 -41 -20 -57 l-3 -30 102 3 c100 3 102 3 119 -23
22 -33 12 -43 -53 -49 -52 -4 -80 -15 -121 -47 -17 -13 -30 -15 -52 -9 -19 5
-32 5 -36 -1 -4 -6 -16 -1 -30 12 -21 20 -24 21 -24 5 0 -15 -3 -16 -15 -6
-13 11 -13 15 0 41 8 15 15 30 15 33 0 12 -58 34 -105 41 -41 6 -48 5 -37 -6
6 -7 12 -27 12 -44 0 -17 -6 -37 -12 -44 -11 -11 -9 -13 10 -8 18 4 26 0 34
-18 9 -20 77 -75 92 -75 4 0 18 40 18 50 0 8 186 5 276 -4 90 -9 122 -26 125
-64 1 -17 33 -45 132 -115 139 -97 240 -171 455 -332 74 -56 170 -125 213
-155 43 -29 76 -55 73 -57 -8 -9 -105 49 -168 101 -71 58 -190 143 -210 151
-9 4 -14 -3 -16 -19 -1 -13 5 -26 13 -30 8 -3 15 -10 15 -15 0 -14 -49 -23
-67 -12 -12 6 -21 5 -29 -7 -11 -14 -14 -14 -40 2 -37 24 -74 57 -74 67 0 21
43 20 66 -2 13 -12 27 -20 30 -16 7 6 -24 39 -71 75 -21 17 -26 25 -17 31 9 5
5 13 -14 27 -15 10 -39 29 -55 42 -15 13 -36 25 -46 27 -10 2 -25 6 -34 10
-18 7 -49 -32 -49 -62 0 -9 -7 -36 -16 -60 -18 -47 -21 -42 75 -142 19 -20 48
-65 65 -101 16 -36 47 -89 68 -119 25 -36 34 -57 27 -61 -7 -5 -2 -16 14 -32
17 -17 27 -41 32 -74 3 -27 7 -59 9 -71 2 -13 -1 -23 -6 -23 -5 0 -3 -10 3
-23 6 -12 8 -19 4 -15 -4 4 -16 -1 -27 -11 -14 -14 -17 -26 -12 -45 8 -34 24
-43 24 -14 0 13 5 30 11 38 8 11 9 3 4 -30 -3 -24 -11 -50 -17 -57 -6 -7 -8
-29 -5 -48 3 -19 3 -51 0 -70 -4 -27 -10 -35 -27 -35 -17 0 -14 -4 12 -17 33
-16 34 -18 27 -62 -9 -69 -14 -121 -14 -169 -1 -29 -5 -41 -12 -36 -7 4 -9 0
-6 -12 16 -54 19 -77 9 -83 -7 -4 -7 -31 -1 -88 8 -60 7 -88 -1 -104 -7 -12
-8 -24 -4 -28 5 -3 10 -64 12 -136 2 -71 6 -138 8 -148 5 -15 2 -15 -33 4
l-38 21 36 -33 37 -34 -3 -85 c-2 -47 -3 -97 -4 -112 -1 -41 -21 -34 -21 7 0
19 -4 35 -8 35 -12 0 -70 -130 -77 -173 -6 -36 -60 -167 -69 -167 -2 0 5 23
15 51 22 56 21 75 -1 31 -24 -48 -31 -54 -46 -41 -11 9 -12 15 -2 27 7 8 -2 6
-22 -7 -19 -11 -42 -21 -50 -21 -8 1 -1 7 16 14 48 21 47 32 -2 34 -25 1 -44
-3 -44 -9 0 -6 -7 -17 -15 -25 -27 -28 -17 -37 32 -31 27 3 41 1 32 -3 -8 -5
-35 -11 -59 -14 -25 -2 -46 -5 -47 -5 -2 -1 -3 -5 -3 -11 0 -13 66 -13 90 0
16 8 18 8 14 -5 -7 -16 -13 -18 -61 -15 -39 2 -75 -8 -68 -20 3 -4 -4 -6 -14
-3 -19 5 -19 5 1 25 23 23 19 42 -9 46 -15 2 -23 -4 -28 -19 -6 -16 -9 -18
-16 -8 -4 8 -3 16 3 20 15 9 -23 60 -40 54 -8 -3 -22 5 -33 17 l-19 23 10 -28
c10 -30 4 -36 -14 -12 -9 13 -15 9 -36 -25 -26 -43 -46 -53 -35 -19 7 20 6 20
-19 4 -28 -19 -31 -26 -16 -41 13 -13 -19 -44 -52 -50 -12 -2 -38 -7 -55 -10
-26 -5 -33 -3 -33 10 0 9 4 16 9 16 4 0 8 13 7 30 -1 40 -16 39 -16 -1 0 -27
-2 -30 -15 -19 -9 8 -15 8 -15 2 0 -6 6 -12 13 -15 6 -2 8 -8 4 -13 -11 -11
-58 38 -60 63 -1 16 -8 21 -28 21 -14 -1 -38 8 -52 18 -30 22 -36 40 -9 29 9
-5 52 -15 95 -23 72 -13 80 -13 95 2 15 15 13 16 -33 16 -28 0 -81 7 -120 15
-83 18 -78 17 -70 5 4 -7 -2 -9 -17 -5 -12 3 -43 6 -68 7 -51 3 -59 10 -52 44
5 30 19 31 24 3 2 -17 11 -22 45 -24 l42 -3 -20 21 c-12 12 -25 32 -30 45 -6
14 -17 22 -33 22 l-25 0 -3 128 c-4 155 0 222 13 222 5 0 9 -11 9 -24 0 -34
10 -56 25 -56 8 0 17 -5 21 -11 5 -9 -1 -10 -20 -5 -25 6 -26 5 -25 -41 0 -27
4 -69 8 -95 4 -27 5 -50 2 -53 -13 -13 -10 -45 4 -45 8 0 29 -13 47 -30 17
-16 42 -30 55 -30 20 0 22 4 17 25 -6 22 -1 27 47 50 l54 25 -35 0 c-32 1 -33
2 -15 13 37 22 29 37 -20 35 -25 0 -47 1 -49 3 -6 7 27 103 41 117 7 7 14 19
14 25 1 7 3 22 4 35 3 26 15 43 15 21 0 -8 23 -37 51 -64 28 -27 55 -59 59
-71 6 -14 23 -25 52 -32 24 -6 60 -20 80 -30 20 -11 48 -17 61 -15 22 4 24 1
25 -36 2 -35 -1 -41 -18 -41 -15 0 -20 7 -20 25 0 21 -3 24 -17 17 -10 -5 -36
-8 -58 -6 l-40 4 53 -30 c54 -31 67 -46 32 -37 -12 3 -34 -6 -57 -23 -44 -32
-88 -78 -82 -84 2 -3 29 -6 60 -7 54 -2 83 9 132 49 16 14 16 16 1 34 -10 10
-12 18 -6 18 6 0 18 -10 27 -22 20 -30 42 -17 72 42 17 32 20 47 12 57 -8 9
-8 13 -1 13 6 0 20 -12 31 -26 19 -24 19 -27 4 -50 -21 -33 -10 -41 23 -15 15
11 35 21 44 21 21 0 80 76 80 102 0 10 7 30 16 43 19 29 12 75 -11 75 -8 0
-15 -4 -15 -8 0 -5 -7 -17 -15 -28 -14 -18 -14 -17 -9 12 3 17 1 49 -5 72 -14
51 -43 63 -75 33 -12 -12 -28 -21 -34 -21 -7 0 -12 -11 -12 -24 0 -25 27 -41
85 -50 17 -2 4 -3 -28 -3 -31 1 -57 0 -57 -4 0 -3 -24 -5 -52 -5 l-53 1 0 54
c0 34 5 56 13 58 8 3 12 -5 12 -24 0 -41 11 -73 24 -73 13 1 52 80 47 95 -9
22 -7 81 2 103 14 29 42 24 43 -8 1 -14 2 -29 4 -35 1 -5 2 -13 2 -16 -1 -8
31 -5 46 5 6 4 16 5 21 2 5 -3 11 3 14 14 7 25 -5 32 -39 24 l-28 -7 26 28
c33 36 88 147 95 194 3 20 12 45 19 56 16 23 18 55 4 55 -5 0 -10 4 -10 9 0 5
-10 31 -21 58 l-22 48 -9 -32 c-15 -55 -107 -192 -149 -221 -33 -23 -51 -8
-43 34 5 27 4 35 -5 30 -13 -8 -14 3 -2 23 5 7 13 11 19 7 9 -5 28 42 19 50
-2 2 -56 6 -121 9 -117 6 -117 6 -106 -15 6 -11 8 -24 5 -29 -3 -5 -2 -11 2
-14 5 -2 2 -2 -6 0 -8 2 -22 -4 -32 -13 -17 -15 -20 -14 -44 10 -23 23 -25 29
-14 43 14 16 1 31 -60 73 -11 8 -21 22 -21 32 0 10 -6 18 -12 18 -7 0 -29 17
-48 36 -19 20 -45 40 -57 45 -13 5 -23 13 -23 18 0 5 10 12 23 16 l22 8 -25 4
c-13 3 -26 0 -28 -6 -6 -17 -16 -13 -48 15 -16 14 -46 34 -66 45 -21 11 -38
23 -38 27 0 11 -105 33 -124 26 -25 -10 -20 -23 29 -73 102 -105 153 -169 181
-228 21 -47 34 -62 49 -62 29 1 70 -7 83 -15 16 -10 4 -33 -21 -40 l-21 -5 23
-25 c28 -29 24 -56 -9 -73 -20 -10 -27 -9 -42 4 -10 9 -18 21 -18 28 0 26 -26
66 -41 62 -12 -3 -14 2 -11 26 4 23 -2 34 -24 54 -27 22 -28 26 -12 37 9 7 16
22 15 34 -2 26 -4 26 -37 7 -33 -19 -46 -19 -30 0 14 17 0 21 -17 4 -9 -9 -10
-7 -6 10 3 13 1 21 -7 21 -7 0 -10 7 -6 16 4 12 2 15 -9 10 -8 -3 -15 -1 -15
4 0 6 -7 10 -15 10 -8 0 -15 5 -15 11 0 5 -4 8 -8 5 -5 -3 -19 5 -33 18 -14
12 -37 26 -53 30 -34 8 -29 30 7 34 30 4 34 14 12 32 -15 12 -103 9 -139 -6
-16 -6 -18 -4 -13 9 3 9 2 17 -3 17 -5 0 -12 -9 -15 -20 -3 -11 -13 -20 -21
-20 -8 0 -14 -5 -14 -11 0 -5 -4 -7 -10 -4 -5 3 -10 -3 -10 -14 0 -11 -10 -30
-23 -43 -37 -37 -130 -37 -121 0 2 9 1 22 -3 27 -13 17 -69 33 -108 30 -35 -2
-36 -1 -30 24 4 14 27 63 52 109 44 80 46 82 76 77 170 -29 190 -27 362 43
129 52 192 72 225 72 14 0 33 9 42 19 9 11 32 23 51 26 l34 7 6 85 c3 47 3
159 0 249 l-6 164 -35 -20 c-40 -24 -65 -13 -58 26 6 30 -14 32 -39 5 -17 -20
-18 -19 -79 31 -75 63 -82 73 -50 76 41 3 65 -15 58 -43 -5 -20 -1 -27 21 -37
19 -9 31 -9 44 -1 26 16 69 5 74 -21 2 -11 5 17 7 64 3 135 25 175 47 90 11
-43 11 -44 12 -12 1 19 -7 47 -16 62 -14 24 -15 35 -5 68 7 22 12 51 12 66 0
23 -2 25 -20 14 -10 -7 -21 -10 -23 -8 -2 3 -1 91 3 195 4 105 4 215 0 245 -8
56 -3 77 23 98 19 16 10 70 -14 83 -13 6 -18 17 -14 32 2 12 7 105 10 206 4
161 7 188 25 216 25 41 25 62 1 70 -18 6 -19 14 -14 158 3 84 7 154 9 156 2 2
16 6 30 7 37 4 41 11 22 44 l-16 29 25 -10 c23 -8 25 -7 20 10 -3 11 -2 20 2
19 19 -2 24 3 11 12 -12 8 -11 12 8 30 42 40 21 55 -29 19 -16 -11 -29 -16
-29 -10 0 5 5 13 10 16 17 10 11 32 -17 66 l-28 33 27 -18 c14 -9 29 -24 32
-33 6 -14 9 -14 26 2 30 27 24 56 -16 95 -29 27 -46 34 -89 38 -46 4 -64 -1
-132 -33 -102 -48 -143 -76 -228 -155 -74 -68 -152 -126 -160 -118 -3 2 26 28
63 56 69 53 132 109 132 118 0 3 -5 15 -11 26 -15 29 5 49 27 26 14 -14 18
-13 46 13 52 47 188 109 236 107 42 -1 88 25 76 43 -6 11 4 29 15 29 5 0 14
-6 20 -14z m-1853 -331 c8 -8 21 -12 29 -9 8 4 15 3 15 -1 0 -10 -27 -35 -39
-35 -6 0 -11 -7 -11 -16 0 -8 -4 -12 -10 -9 -5 3 -10 1 -10 -6 0 -8 -4 -8 -15
1 -13 11 -15 8 -15 -14 0 -14 -5 -26 -11 -26 -7 0 -9 -19 -5 -57 7 -83 8 -83
27 -83 10 0 22 -6 26 -12 4 -7 14 -13 21 -14 39 -3 41 -5 35 -21 -4 -10 -11
-21 -16 -24 -12 -8 -47 1 -47 12 0 5 -15 8 -32 6 -56 -5 -81 28 -85 112 -2 50
1 70 9 68 6 -1 14 7 17 18 3 11 15 20 26 20 17 0 20 6 19 47 -1 48 0 48 49 57
5 0 15 -6 23 -14z m-400 -353 c32 -21 93 -54 134 -73 42 -20 131 -75 199 -123
68 -47 127 -86 132 -86 5 0 9 -23 9 -52 0 -39 5 -57 22 -75 12 -13 16 -23 10
-23 -7 0 -12 5 -12 10 0 6 -4 10 -8 10 -5 0 -60 50 -123 110 -63 61 -126 117
-141 125 -15 8 -67 43 -116 78 -76 54 -126 78 -232 114 -12 4 -11 7 5 13 37
16 62 10 121 -28z m364 -379 c3 1 16 -6 30 -16 13 -9 34 -17 45 -18 20 0 20 0
0 -9 -20 -9 -20 -9 0 -9 11 -1 32 -12 46 -25 26 -24 59 -21 44 4 -11 18 22 -2
63 -37 27 -24 35 -40 41 -83 1 -3 15 -20 31 -38 34 -37 40 -58 13 -43 -10 5
-63 44 -118 86 -55 42 -139 106 -187 142 -92 69 -114 97 -50 64 20 -10 39 -18
42 -18z m-226 -143 c34 -81 53 -122 105 -231 23 -48 41 -89 41 -93 0 -3 9 -25
19 -49 45 -100 54 -145 42 -207 -3 -14 -24 33 -46 105 -33 104 -77 218 -88
226 -5 3 -8 8 -7 10 1 4 -8 34 -20 64 -20 49 -42 111 -45 127 -2 9 -8 25 -13
35 -14 25 -33 98 -23 87 4 -5 20 -38 35 -74z m176 61 c0 -5 6 -16 14 -23 7 -8
21 -28 30 -45 8 -17 25 -34 36 -38 11 -3 20 -10 20 -15 0 -5 6 -7 13 -5 19 7
50 -22 44 -40 -4 -8 -2 -15 3 -15 6 0 10 5 10 11 0 8 5 8 15 -1 8 -7 15 -19
15 -27 0 -8 4 -11 10 -8 6 4 7 -1 3 -11 -5 -14 -8 -13 -19 9 -9 17 -20 24 -32
20 -17 -4 -23 -35 -10 -49 4 -3 2 -20 -4 -36 -9 -26 -13 -29 -22 -16 -6 8 -15
17 -21 19 -5 2 -9 6 -8 9 1 3 5 13 8 23 4 10 3 17 -5 17 -6 0 -8 -4 -5 -10 3
-5 2 -10 -3 -10 -14 0 -34 62 -24 69 12 8 -53 68 -67 63 -15 -5 -14 25 1 34 7
4 8 3 4 -4 -4 -7 -3 -12 3 -12 20 0 21 19 2 30 -13 7 -22 7 -26 0 -3 -5 -12
-10 -18 -10 -8 0 -8 3 1 9 12 7 12 12 0 30 -11 18 -11 23 2 31 19 12 30 13 30
1z m674 -416 c103 -134 176 -243 127 -187 -102 116 -196 212 -253 258 -60 50
-66 58 -57 77 9 16 8 23 -5 32 -9 7 -16 21 -16 31 0 23 120 -100 204 -211z
m307 -113 c25 -23 52 -53 59 -67 7 -14 33 -37 57 -50 45 -27 59 -44 21 -25
-64 31 234 -182 360 -257 20 -13 30 -23 21 -23 -23 0 -615 410 -688 477 l-26
24 25 -12 c14 -6 36 -19 50 -29 123 -82 131 -68 23 39 -107 105 -126 133 -28
41 44 -42 101 -95 126 -118z m-1742 143 c22 -8 41 -12 41 -10 0 2 15 -2 34
-10 19 -8 48 -16 65 -17 17 -1 31 -7 31 -13 0 -5 5 -3 10 5 7 12 10 12 10 1 0
-7 6 -11 15 -7 8 3 15 2 15 -2 0 -4 17 -6 39 -4 21 2 42 -1 45 -7 4 -6 22 -11
41 -11 18 0 40 -6 47 -13 7 -8 19 -12 26 -9 6 2 12 -1 12 -7 0 -17 -70 -13
-76 4 -6 14 -8 13 -19 -2 -12 -15 -14 -16 -19 -3 -5 11 -23 16 -61 17 -50 1
-54 0 -45 -16 14 -26 66 -63 145 -103 113 -57 170 -93 170 -109 0 -8 -6 -13
-13 -11 -6 1 -12 -5 -12 -13 0 -9 -9 -15 -25 -15 -16 0 -25 6 -25 15 0 8 5 15
11 15 6 0 1 14 -11 30 -12 17 -28 30 -36 30 -8 0 -14 4 -14 9 0 9 -121 71
-139 71 -6 0 -11 5 -11 10 0 6 -8 10 -19 10 -10 0 -43 23 -72 50 -29 28 -57
50 -61 50 -5 0 -16 4 -26 9 -9 6 -43 21 -74 36 -80 35 -79 49 1 20z m644 -724
c45 -33 60 -60 35 -62 -10 0 -10 -2 0 -6 6 -2 12 -9 12 -14 0 -4 -6 -6 -13 -3
-7 2 -13 -4 -14 -16 -1 -11 2 -20 8 -20 5 0 9 -9 9 -20 0 -11 -5 -20 -12 -20
-6 0 -4 -8 7 -20 21 -23 14 -49 -13 -47 -11 0 -18 6 -16 12 2 5 -9 11 -26 12
-16 1 -42 14 -57 28 -15 14 -33 25 -40 25 -15 0 -17 26 -3 35 6 4 8 10 5 15
-3 4 1 10 8 13 9 3 13 19 11 44 -2 43 23 96 41 85 6 -4 32 -22 58 -41z m2450
-1187 c11 -15 16 -32 12 -42 -5 -12 -9 -13 -12 -4 -3 6 -14 12 -25 12 -14 0
-18 -5 -14 -16 3 -9 6 -22 6 -30 0 -9 4 -13 9 -9 5 3 13 0 17 -6 7 -13 -15
-31 -29 -22 -11 7 -57 -36 -57 -54 0 -7 -9 -13 -20 -13 -14 0 -20 6 -18 18 2
13 -5 18 -29 20 -23 2 -33 8 -33 20 0 21 39 24 58 5 19 -18 32 -7 32 28 0 24
-4 29 -24 29 -13 0 -31 3 -40 6 -11 4 -16 0 -16 -13 0 -11 -11 -25 -24 -32
-20 -11 -28 -10 -50 4 -29 20 -33 46 -10 69 19 19 24 20 49 3 26 -18 113 -21
134 -5 14 12 14 11 2 -4 -8 -11 -9 -18 -3 -18 6 0 13 -10 15 -22 3 -20 4 -20
3 2 0 14 7 36 17 50 9 13 17 30 17 37 0 20 13 15 33 -13z m-249 -113 c3 -4 7
-22 8 -39 2 -24 10 -35 33 -47 27 -13 27 -15 8 -15 -13 0 -23 -4 -23 -10 0 -5
-7 -7 -15 -4 -8 3 -13 9 -12 12 1 4 -2 9 -8 12 -5 3 -13 -12 -18 -32 -7 -29
-4 -47 12 -85 l21 -48 -29 35 c-21 24 -30 30 -34 20 -2 -8 -3 -3 -1 12 2 15
-2 53 -8 83 -10 52 -12 55 -29 39 -16 -14 -18 -14 -29 6 -15 28 -3 41 53 57
54 14 65 15 71 4z"/>
<path d="M3400 3500 c-33 -19 -33 -20 -10 -22 60 -3 128 -14 245 -38 53 -11
75 -30 75 -66 0 -18 -5 -21 -31 -18 -17 2 -36 7 -42 11 -6 3 -57 8 -113 9 -75
2 -107 -1 -120 -11 -12 -9 -14 -14 -6 -15 8 0 10 -8 6 -26 -7 -26 -6 -26 33
-20 37 7 40 6 56 -29 20 -43 21 -45 4 -45 -7 0 -13 -10 -14 -22 -1 -11 -7 -24
-14 -28 -8 -6 -8 -9 2 -14 11 -5 11 -7 2 -12 -21 -9 -15 -24 10 -24 17 0 23
-6 23 -22 0 -13 -5 -26 -10 -30 -7 -5 -4 -13 9 -22 16 -12 17 -15 4 -16 -16 0
-17 -32 -3 -166 5 -50 6 -52 39 -56 l34 -4 21 81 c17 61 81 239 108 296 2 4
-4 13 -12 21 -10 11 -33 14 -80 12 -63 -3 -67 -2 -76 22 -7 17 -6 32 1 46 9
17 17 19 57 13 26 -4 56 -13 67 -21 11 -7 30 -21 43 -31 27 -19 35 -12 52 47
15 55 -2 108 -49 152 -23 20 -41 41 -41 45 0 10 -22 13 -140 18 -81 4 -100 2
-130 -15z"/>
<path d="M3123 3442 c11 -11 25 -18 33 -15 9 3 20 -10 34 -42 19 -45 20 -48 3
-62 -16 -13 -13 -14 30 -9 55 7 110 40 105 64 -4 20 -116 68 -179 78 -44 7
-44 7 -26 -14z"/>
<path d="M3323 3250 c0 -16 -2 -32 -5 -35 -3 -3 -31 1 -64 10 -67 17 -124 20
-124 5 0 -5 10 -10 23 -10 19 0 25 -8 36 -49 24 -95 62 -121 136 -93 44 16 45
17 45 62 0 44 -28 140 -40 140 -4 0 -7 -13 -7 -30z"/>
<path d="M3218 2882 c-29 -6 -20 -22 12 -22 17 0 30 -5 30 -11 0 -5 -4 -7 -10
-4 -5 3 -10 0 -10 -9 0 -8 13 -17 29 -21 24 -5 29 -11 27 -33 0 -15 -7 -32
-15 -38 -16 -12 -6 -37 12 -31 7 2 20 -2 29 -10 16 -14 16 -13 7 22 -7 26 -7
41 0 48 7 7 12 5 17 -7 9 -25 55 -69 62 -61 4 4 7 34 7 68 0 49 -3 62 -16 65
-9 2 -23 -3 -31 -11 -8 -8 -21 -11 -33 -7 -19 7 -19 7 0 18 18 10 15 11 -17
12 -21 0 -38 5 -38 10 0 6 17 8 41 5 28 -3 48 0 62 11 21 14 16 15 -63 12 -47
-1 -93 -4 -102 -6z"/>
<path d="M3391 2579 c-13 -10 -36 -19 -52 -19 -29 0 -38 -13 -19 -25 6 -3 10
-1 10 4 0 6 6 11 14 11 10 0 13 -8 10 -25 -3 -17 1 -27 11 -31 26 -10 16 -20
-20 -19 -19 1 -35 -3 -35 -8 0 -5 -6 -7 -12 -4 -7 2 -12 10 -10 16 2 13 -54
15 -62 2 -3 -4 3 -16 14 -26 15 -13 34 -18 72 -16 44 1 55 -2 69 -20 10 -14
22 -20 33 -16 13 5 16 20 15 74 -1 37 -4 80 -8 95 l-6 26 -24 -19z"/>
<path d="M3189 2391 c8 -5 42 -13 75 -17 34 -4 66 -8 71 -9 6 -1 18 -3 28 -3
22 -2 22 -34 -1 -55 -21 -19 -42 -22 -42 -7 0 13 -27 13 -35 -1 -8 -12 32 -59
51 -59 7 0 15 -6 17 -12 3 -7 6 4 6 24 1 52 21 60 21 9 0 -37 2 -41 25 -41 14
0 25 3 26 8 1 4 2 38 3 75 1 61 -1 68 -19 72 -118 24 -254 33 -226 16z"/>
<path d="M3085 2290 c-61 -9 -95 -19 -95 -28 0 -9 150 -43 161 -37 10 7 59
-35 59 -50 0 -27 -47 -38 -134 -30 -103 8 -167 0 -159 -21 3 -7 24 -19 47 -25
22 -6 56 -17 74 -25 18 -8 43 -14 55 -14 17 0 25 -9 34 -37 9 -29 9 -40 0 -45
-8 -6 -2 -17 21 -36 18 -15 32 -32 32 -38 0 -6 25 -37 55 -70 l54 -59 -1 35
c-1 36 9 110 15 117 2 2 16 -14 31 -36 21 -31 32 -38 49 -33 19 5 20 3 9 -10
-10 -12 -10 -18 2 -27 8 -7 12 -19 10 -26 -3 -7 4 -18 15 -25 19 -9 21 -8 21
14 0 14 -8 30 -17 35 -16 10 -16 11 5 17 12 3 22 11 22 16 0 5 5 6 10 3 6 -3
10 -21 10 -38 0 -24 3 -28 10 -17 8 12 10 11 10 -7 0 -19 6 -23 30 -24 50 -2
55 -4 51 -19 -14 -57 -21 -93 -18 -96 9 -9 57 39 81 80 32 54 34 86 6 86 -11
0 -20 -4 -20 -9 0 -5 -13 -11 -30 -13 -35 -5 -46 14 -35 62 5 24 3 30 -10 30
-9 0 -15 6 -13 13 1 6 -8 32 -21 56 -18 35 -20 45 -10 52 8 4 10 11 6 15 -6 6
6 23 54 82 7 8 15 9 28 2 16 -8 21 -4 32 23 7 17 23 47 36 65 12 18 19 40 16
48 -7 18 -23 18 -23 -1 0 -8 -6 -12 -14 -9 -8 3 -17 -2 -20 -13 -3 -10 -4 -1
-1 20 3 34 2 37 -21 37 -13 0 -24 -4 -24 -10 0 -5 -9 -10 -20 -10 -11 0 -20
-6 -20 -14 0 -16 -14 -21 -83 -31 -54 -7 -66 -23 -43 -57 l16 -22 0 27 c0 20
5 27 19 27 10 0 32 3 49 6 l31 6 -3 -61 c-2 -43 -8 -67 -20 -79 -17 -16 -18
-15 -12 30 7 43 6 47 -11 41 -10 -4 -20 -10 -23 -14 -8 -11 -93 11 -105 26 -6
7 -22 15 -35 17 -19 2 -35 20 -64 69 -44 74 -47 75 -161 59z"/>
<path d="M3726 2238 c-31 -107 -80 -178 -121 -178 -12 0 -30 -6 -41 -14 -21
-16 -23 -15 51 -33 22 -6 47 -13 56 -17 13 -6 20 1 29 29 7 20 10 50 8 66 -3
17 0 29 6 29 38 1 70 121 33 128 -9 2 -19 -2 -21 -10z"/>
</g>
</svg>
