<?xml version="1.0" encoding="utf-8"?>
<!-- Generator: Adobe Illustrator 17.0.0, SVG Export Plug-In . SVG Version: 6.00 Build 0)  -->
<!DOCTYPE svg PUBLIC "-//W3C//DTD SVG 1.1//EN" "http://www.w3.org/Graphics/SVG/1.1/DTD/svg11.dtd">
<svg version="1.1" id="레이어_1" xmlns="http://www.w3.org/2000/svg" xmlns:xlink="http://www.w3.org/1999/xlink" x="0px"
	 y="0px" width="235.25px" height="283.46px" viewBox="0 0 235.25 283.46" enable-background="new 0 0 235.25 283.46"
	 xml:space="preserve">
<g>
	<path fill="#FFFFFF" d="M192.3,279.625H42.746C19.134,279.625,0,260.491,0,236.879V87.298c0-23.612,19.134-42.746,42.746-42.746
		h21.373V23.207h23.329c4.394-12.444,16.129-21.373,30.075-21.373s25.681,8.929,30.075,21.373h23.329V44.58H192.3
		c23.612,0,42.746,19.134,42.746,42.746v149.582C235.046,260.492,215.912,279.625,192.3,279.625z M160.269,44.58h-10.686h-1.956
		H128.21V23.207h-21.373V44.58H87.448H74.806v21.373h42.717h32.059h10.686L160.269,44.58L160.269,44.58z M213.673,87.298
		c0-11.792-9.553-21.373-21.373-21.373h-21.373v21.373H64.091V65.925H42.718c-11.792,0-21.373,9.581-21.373,21.373V236.88
		c0,11.792,9.581,21.373,21.373,21.373H192.3c11.82,0,21.373-9.553,21.373-21.373V87.298L213.673,87.298z M74.777,215.507H192.3
		v21.373H74.777V215.507z M74.777,162.103H192.3v21.373H74.777V162.103z M74.777,108.671H192.3v21.373H74.777V108.671z
		 M42.746,215.507h21.373v21.373H42.746V215.507z M42.746,162.103h21.373v21.373H42.746V162.103z M42.746,108.671h21.373v21.373
		H42.746C42.746,130.044,42.746,108.671,42.746,108.671z"/>
</g>
</svg>
