<?xml version="1.0" encoding="utf-8"?>
<!-- Generator: Adobe Illustrator 17.0.0, SVG Export Plug-In . SVG Version: 6.00 Build 0)  -->
<!DOCTYPE svg PUBLIC "-//W3C//DTD SVG 1.1//EN" "http://www.w3.org/Graphics/SVG/1.1/DTD/svg11.dtd">
<svg version="1.1" id="Layer_1" xmlns="http://www.w3.org/2000/svg" xmlns:xlink="http://www.w3.org/1999/xlink" x="0px" y="0px"
	 width="128.29px" height="348.031px" viewBox="503.373 112.199 128.29 348.031"
	 enable-background="new 503.373 112.199 128.29 348.031" xml:space="preserve">
<path fill="#767676" d="M585.483,286.71l-35.061-0.11c-18.327,3.919-31.337,14.329-31.386,29.588c-0.02,6.05,2,14.308,5.585,22.865
	c3.991,9.536,2.968,20.501-2.73,29.128c-11.409,17.289-18.48,37.621-18.517,50.458c-0.09,26.006,28.587,41.475,64.01,41.59
	c35.423,0.115,64.2-15.165,64.28-41.171c0.047-12.836-6.89-33.215-18.187-50.578c-5.641-8.665-6.593-19.635-2.539-29.145
	c3.65-8.533,5.714-16.778,5.734-22.828C616.72,301.248,603.774,290.758,585.483,286.71z"/>
<path fill="#9D9D9D" d="M550.381,299.119l4.899-131.083l14.844-15.289l11.272,15.373l4.046,131.108l0.457,13.402
	c-4.507-4.798-10.904-7.815-18.009-7.833c-7.104-0.028-13.521,2.947-18.059,7.715L550.381,299.119z"/>
<path fill="#767676" d="M589.021,116.308l-2.68,37.644c-0.177,2.538-0.696,5.031-1.527,7.413c-0.831,2.381-1.98,4.656-3.418,6.756
	l-26.116-0.085c-2.852-4.214-4.527-9.119-4.857-14.206l-2.435-37.661c6.584-2.671,13.563-3.997,20.532-3.969
	C575.495,112.222,582.455,113.593,589.021,116.308z"/>
<rect x="559.453" y="381.416" transform="matrix(0.0033 -1 1 0.0033 161.5519 970.4005)" fill="#BABABA" width="16.222" height="45.489"/>
<path fill="#4D4D4D" d="M567.839,320.659c11.469,0.033,20.735,9.36,20.697,20.833c-0.037,11.464-9.364,20.73-20.833,20.697
	c-11.469-0.042-20.735-9.369-20.697-20.833C547.044,329.882,556.37,320.616,567.839,320.659z"/>
</svg>
