<?xml version="1.0" encoding="utf-8"?>
<!-- Generator: Adobe Illustrator 17.0.0, SVG Export Plug-In . SVG Version: 6.00 Build 0)  -->
<!DOCTYPE svg PUBLIC "-//W3C//DTD SVG 1.1//EN" "http://www.w3.org/Graphics/SVG/1.1/DTD/svg11.dtd">
<svg version="1.1" id="레이어_1" xmlns="http://www.w3.org/2000/svg" xmlns:xlink="http://www.w3.org/1999/xlink" x="0px"
	 y="0px" width="24.749px" height="44.992px" viewBox="11.625 1.941 24.749 44.992"
	 enable-background="new 11.625 1.941 24.749 44.992" xml:space="preserve">
<g>
	<path fill="#BFBFBF" d="M28.423,22.519c0.002,0.001,0.002,0.001,0.004,0.002C28.425,22.519,28.423,22.519,28.423,22.519z"/>
	<path fill="#BFBFBF" d="M31.031,41.324c0,0-0.073-3.953-0.021-4.442c0.039-0.375-0.203-4.603,1.762-7.164
		c0.326-0.423,0.98-2,3.016-1.254l0.586-0.856c-6.834-4.324-6.687-4.28-7.948-5.086c0.005,0.009-0.018,0.099-0.533,0.907
		c1.56,1.88,0.815,2.445,0.417,3.278c-1.545,2.071-1.946,4.858-1.966,7.532l0.295,5.848c0.004,0.08,0.009,0.149,0.011,0.211
		l0.017,0.353c0.028,0.552-0.397,1.021-0.948,1.05c-0.185,0.009-0.36-0.032-0.512-0.112c-0.305-0.159-0.52-0.47-0.537-0.836
		l-0.015-0.309c-0.014-0.036-0.009-0.062-0.009-0.062l-0.965-19.211l-0.006-0.117l0,0L23.094,9.443
		c-0.144-5.234-3.056-5.463-4.423-5.881c-0.236-0.073-1.028-0.285-1.962-0.534c0,0-1.432,0.804-0.661,2.372
		c0.689,0.242,1.325,0.465,1.769,0.608c1.588,0.515,1.537,1.954,1.552,2.744s0.523,30.516,0.584,31.901
		c0.061,1.385,1.22,6.305,6.374,6.279S31.031,41.324,31.031,41.324z"/>
</g>
<path fill="#555555" d="M16.708,3.028c-1.798-0.478-4.134-1.087-4.134-1.087s-0.747,0.124-0.917,0.866
	c-0.17,0.743,0.395,1.144,0.395,1.144s2.181,0.806,3.995,1.45C15.277,3.832,16.708,3.029,16.708,3.028z"/>
<g>
	<path fill="#8C8C8C" d="M27.238,34.141c-0.179-0.808,0.332-1.612,1.141-1.792c0.807-0.178,1.608,0.331,1.788,1.139
		c0.178,0.812-0.332,1.612-1.139,1.791C28.22,35.458,27.418,34.951,27.238,34.141z"/>
	<path fill="#8C8C8C" d="M22.279,29.179c-0.179-0.807,0.333-1.612,1.143-1.79c0.807-0.179,1.608,0.33,1.787,1.139
		c0.178,0.81-0.33,1.611-1.14,1.79C23.261,30.498,22.457,29.99,22.279,29.179z"/>
	<path fill="#8C8C8C" d="M22.444,33.853c-0.179-0.808,0.332-1.612,1.142-1.791c0.807-0.178,1.608,0.331,1.787,1.139
		c0.178,0.81-0.33,1.611-1.14,1.79C23.424,35.17,22.621,34.663,22.444,33.853z"/>
	<path fill="#8C8C8C" d="M22.797,38.595c-0.179-0.808,0.333-1.612,1.143-1.791c0.806-0.178,1.608,0.331,1.786,1.139
		c0.178,0.81-0.33,1.611-1.14,1.79C23.78,39.913,22.976,39.405,22.797,38.595z"/>
	<path fill="#8C8C8C" d="M27.158,38.614c-0.181-0.81,0.331-1.612,1.139-1.792c0.807-0.176,1.609,0.329,1.789,1.139
		c0.179,0.81-0.331,1.613-1.139,1.792C28.139,39.933,27.337,39.425,27.158,38.614z"/>
	<circle fill="#8C8C8C" cx="28.33" cy="42.088" r="1.001"/>
	<path fill="#8C8C8C" d="M22.225,14.785c-0.119-0.539,0.219-1.072,0.759-1.194c0.541-0.118,1.074,0.224,1.193,0.762
		c0.12,0.535-0.222,1.073-0.759,1.192C22.877,15.668,22.344,15.327,22.225,14.785z"/>
	<path fill="#8C8C8C" d="M22.368,18.247c-0.119-0.538,0.219-1.071,0.758-1.193c0.542-0.119,1.075,0.223,1.192,0.761
		c0.121,0.535-0.221,1.073-0.759,1.192C23.019,19.129,22.486,18.789,22.368,18.247z"/>
	<path fill="#8C8C8C" d="M22.542,21.791c-0.119-0.538,0.22-1.072,0.759-1.193c0.541-0.119,1.074,0.222,1.192,0.761
		c0.12,0.534-0.222,1.073-0.759,1.192C23.195,22.672,22.661,22.332,22.542,21.791z"/>
	<path fill="#8C8C8C" d="M22.73,25.163c-0.119-0.538,0.219-1.072,0.759-1.193c0.542-0.119,1.075,0.223,1.192,0.761
		c0.121,0.535-0.221,1.074-0.759,1.192C23.382,26.044,22.851,25.706,22.73,25.163z"/>
</g>
</svg>
