<?xml version="1.0" encoding="utf-8"?>
<!-- Generator: Adobe Illustrator 17.0.0, SVG Export Plug-In . SVG Version: 6.00 Build 0)  -->
<!DOCTYPE svg PUBLIC "-//W3C//DTD SVG 1.1//EN" "http://www.w3.org/Graphics/SVG/1.1/DTD/svg11.dtd">
<svg version="1.1" id="Layer_1" xmlns="http://www.w3.org/2000/svg" xmlns:xlink="http://www.w3.org/1999/xlink" x="0px" y="0px"
	 width="283.46px" height="283.46px" viewBox="0 -1.085 283.46 283.46" enable-background="new 0 -1.085 283.46 283.46"
	 xml:space="preserve">
<path fill="#373737" d="M283.46,140.645c0-78.263-63.467-141.73-141.73-141.73S0,62.382,0,140.645s63.467,141.73,141.73,141.73
	S283.46,218.908,283.46,140.645z"/>
<path d="M76.321,35.247l8.398-1.885c0,0,1.885-0.171,2.799-1.085l10.625,1.257l0.171,0.8l5.084,0.914l-0.229,5.77l-5.713,0.229
	l-0.229,0.628h-2.171C95.001,41.931,80.719,39.246,76.321,35.247z"/>
<g>
	<path fill="#6C6C6C" d="M102.827,36.447v4.227c0,0,6.798,1.885,20.623-3.542c0,0,9.083-4.456,14.967,1.485
		c1.028,1.028,2.285,2.628,2.285,7.541l-0.457,14.282l-5.77,164.58c0,0-1.428,26.05,21.822,27.478c0,0,15.024,0.914,20.451-14.339
		c0,0,2.342-7.541,2.571-23.707c0,0,0.743-49.071,15.196-54.384c0,0,12.853-2.913,12.568-3.313
		c-0.057-0.114-3.999-8.112-12.282-16.395c-8.74-8.74-16.338-13.425-16.338-13.425c-0.286,0.4-3.428,12.111-3.885,12.739
		c-9.654,14.053-13.825,33.762-13.825,56.612l-0.514,29.306c0,0,0.4,8.055-4.17,8.169c0,0-5.027,0.743-4.57-6.17l-2.514-181.775
		c0,0,0.4-7.712-5.713-13.368c0,0-4.513-4.684-12.682-3.428c0,0-5.884,0.229-10.511,3.142
		C120.136,32.105,113.738,37.018,102.827,36.447z"/>
	<ellipse fill="#6C6C6C" cx="149.842" cy="139.56" rx="3.199" ry="4.856"/>
	<ellipse fill="#6C6C6C" cx="149.728" cy="127.677" rx="2.799" ry="4.284"/>
	<ellipse fill="#6C6C6C" cx="150.128" cy="152.527" rx="3.542" ry="5.313"/>
	<ellipse fill="#6C6C6C" cx="150.47" cy="166.523" rx="3.827" ry="5.827"/>
	<ellipse fill="#6C6C6C" cx="150.699" cy="181.147" rx="3.77" ry="5.655"/>
	<ellipse fill="#6C6C6C" cx="151.099" cy="197.6" rx="3.942" ry="5.998"/>
	<ellipse fill="#6C6C6C" cx="151.727" cy="214.509" rx="4.57" ry="6.969"/>
	<ellipse fill="#6C6C6C" cx="149.613" cy="115.624" rx="2.799" ry="4.284"/>
	<ellipse fill="#6C6C6C" cx="150.07" cy="102.77" rx="2.799" ry="4.284"/>
</g>
<g>
	<path fill="#888888" d="M166.58,168.637c0,0-0.571-17.709,11.025-24.907L166.58,168.637z"/>
	<path fill="#888888" d="M156.297,250.613c0,0,17.195,0.286,19.823-17.024c0,0-4.113,7.084-9.083,11.082
		C162.01,248.728,156.297,250.613,156.297,250.613z"/>
	<path fill="#888888" d="M134.246,29.706c0,0,8.683,0,13.082,10.568c0,0-1.999-2.856-6.227-6.284
		C136.817,30.62,134.246,29.706,134.246,29.706z"/>
</g>
<path fill="#232323" d="M81.862,34.847c0,0-4.57,0.743-0.971,1.828l4.113,1.2L81.862,34.847z"/>
</svg>
