<?xml version="1.0" encoding="utf-8"?>
<!-- Generator: Adobe Illustrator 17.0.0, SVG Export Plug-In . SVG Version: 6.00 Build 0)  -->
<!DOCTYPE svg PUBLIC "-//W3C//DTD SVG 1.1//EN" "http://www.w3.org/Graphics/SVG/1.1/DTD/svg11.dtd">
<svg version="1.1" id="Layer_1" xmlns="http://www.w3.org/2000/svg" xmlns:xlink="http://www.w3.org/1999/xlink" x="0px" y="0px"
	 width="283.46px" height="283.46px" viewBox="425.2 0 283.46 283.46" enable-background="new 425.2 0 283.46 283.46"
	 xml:space="preserve">
<path fill="#25B7D3" d="M708.66,141.73C708.66,63.467,645.193,0,566.93,0S425.2,63.467,425.2,141.73s63.467,141.73,141.73,141.73
	S708.66,219.993,708.66,141.73z"/>
<path fill="#3A3A38" d="M501.521,36.332l8.398-1.885c0,0,1.885-0.171,2.799-1.085l10.625,1.257l0.171,0.8l5.084,0.914l-0.229,5.77
	l-5.713,0.229l-0.229,0.628h-2.171C520.201,43.016,505.919,40.331,501.521,36.332z"/>
<g>
	<path fill="#EDC92F" d="M528.027,37.532v4.227c0,0,6.798,1.885,20.623-3.542c0,0,9.083-4.456,14.967,1.485
		c1.028,1.028,2.285,2.628,2.285,7.541l-0.457,14.282l-5.77,164.58c0,0-1.428,26.05,21.822,27.478c0,0,15.024,0.914,20.451-14.339
		c0,0,2.342-7.541,2.571-23.707c0,0,0.743-49.071,15.196-54.384c0,0,12.853-2.913,12.568-3.313
		c-0.057-0.114-3.999-8.112-12.282-16.395c-8.74-8.74-16.338-13.425-16.338-13.425c-0.286,0.4-3.428,12.111-3.885,12.739
		c-9.654,14.053-13.825,33.762-13.825,56.612l-0.514,29.306c0,0,0.4,8.055-4.17,8.169c0,0-5.027,0.743-4.57-6.17l-2.514-181.775
		c0,0,0.4-7.712-5.713-13.368c0,0-4.513-4.684-12.682-3.428c0,0-5.884,0.229-10.511,3.142
		C545.336,33.19,538.938,38.103,528.027,37.532z"/>
	<ellipse fill="#EDC92F" cx="575.042" cy="140.645" rx="3.199" ry="4.856"/>
	<ellipse fill="#EDC92F" cx="574.928" cy="128.762" rx="2.799" ry="4.284"/>
	<ellipse fill="#EDC92F" cx="575.328" cy="153.612" rx="3.542" ry="5.313"/>
	<ellipse fill="#EDC92F" cx="575.67" cy="167.608" rx="3.827" ry="5.827"/>
	<ellipse fill="#EDC92F" cx="575.899" cy="182.232" rx="3.77" ry="5.655"/>
	<ellipse fill="#EDC92F" cx="576.299" cy="198.685" rx="3.942" ry="5.998"/>
	<ellipse fill="#EDC92F" cx="576.927" cy="215.594" rx="4.57" ry="6.969"/>
	<ellipse fill="#EDC92F" cx="574.813" cy="116.709" rx="2.799" ry="4.284"/>
	<ellipse fill="#EDC92F" cx="575.27" cy="103.855" rx="2.799" ry="4.284"/>
</g>
<g>
	<path fill="#FCE37A" d="M591.78,169.722c0,0-0.571-17.709,11.025-24.907L591.78,169.722z"/>
	<path fill="#FCE37A" d="M581.497,251.698c0,0,17.195,0.286,19.823-17.024c0,0-4.113,7.084-9.083,11.082
		C587.21,249.813,581.497,251.698,581.497,251.698z"/>
	<path fill="#FCE37A" d="M559.446,30.791c0,0,8.683,0,13.082,10.568c0,0-1.999-2.856-6.227-6.284
		C562.017,31.705,559.446,30.791,559.446,30.791z"/>
</g>
<path fill="#7A7A7A" d="M507.062,35.932c0,0-4.57,0.743-0.971,1.828l4.113,1.2L507.062,35.932z"/>
</svg>
